# xmcd
#
# Track frame offsets:
#  151
#  17635
#  35174
#  59003
#  71170
#  86626
#  100658
#  117779
#  131534
#  146204
#  168340
#
# Disc length: 2369 seconds
#
# Revision: 0
# Processed by: cddbd v1.5.2PL0 Copyright (c) Steve Scherf et al.
# Submitted via: Collectorz.com_Music_Collector 6.11
#
DISCID=9e093f0b
DTITLE=Various Artist - Chico Buarque De Hollanda (vinyl LP)
DYEAR=1900
DGENRE=OST - Morricone - Vocal - Foreign Language
TTITLE0=Roda Viva
TTITLE1=Samba E Amor
TTITLE2=Sonho De Um Carnaval Ela Desatinou
TTITLE3=Nao Fala De Maria
TTITLE4=Funeral De Um Lavrador
TTITLE5=Mulher
TTITLE6=Umas E Outras
TTITLE7=Quem Te Viu, Quem Te Ve
TTITLE8=Nicanor
TTITLE9=Tema Da "US Inconfidentes"
TTITLE10=Agora Falando Serio
EXTD=
EXTT0=
EXTT1=
EXTT2=
EXTT3=
EXTT4=
EXTT5=
EXTT6=
EXTT7=
EXTT8=
EXTT9=
EXTT10=
PLAYORDER=
